<svg width="131" height="40" viewBox="0 0 131 40" fill="none" xmlns="http://www.w3.org/2000/svg">
<path d="M8.1 39.5H0V0H9.05C10.9166 0 12.4334 0.100001 13.6 0.300001C14.8 0.466666 15.7334 0.83333 16.4 1.4C17.0666 1.96667 17.5166 2.78333 17.75 3.85C18.0166 4.88333 18.15 6.28336 18.15 8.05V12.15C18.15 13.1834 18.0334 14.0334 17.8 14.7C17.5666 15.3666 17.2666 15.9 16.9 16.3C16.5666 16.7 16.2 17 15.8 17.2C15.4 17.3666 15.0334 17.4834 14.7 17.55V17.75C15.2 17.8834 15.65 18.0834 16.05 18.35C16.4834 18.5834 16.85 18.95 17.15 19.45C17.45 19.95 17.6834 20.6166 17.85 21.45C18.05 22.25 18.15 23.2834 18.15 24.55V39.5H10V22C10 21.5666 9.95 21.2834 9.85 21.15C9.75 20.9834 9.48336 20.9 9.05 20.9H8.1V39.5ZM8.1 14.55H9.05C9.48336 14.55 9.75 14.4834 9.85 14.35C9.95 14.1834 10 13.8834 10 13.45V8.05C10 7.61665 9.95 7.33336 9.85 7.2C9.75 7.03336 9.48336 6.95 9.05 6.95H8.1V14.55ZM37.1274 33.65C37.1274 35.05 37.0107 36.1666 36.7774 37C36.5774 37.8334 36.1774 38.4834 35.5774 38.95C35.0107 39.3834 34.2107 39.6666 33.1774 39.8C32.1774 39.9334 30.8607 40 29.2274 40C27.6274 40 26.3107 39.9334 25.2774 39.8C24.244 39.6666 23.444 39.3834 22.8774 38.95C22.3107 38.4834 21.9107 37.8334 21.6774 37C21.4774 36.1666 21.3774 35.05 21.3774 33.65V15.4C21.3774 14 21.4774 12.8834 21.6774 12.05C21.9107 11.2166 22.3107 10.5834 22.8774 10.15C23.444 9.68336 24.244 9.38336 25.2774 9.25C26.3107 9.11665 27.6274 9.05 29.2274 9.05C30.8607 9.05 32.1774 9.11665 33.1774 9.25C34.2107 9.38336 35.0107 9.68336 35.5774 10.15C36.1774 10.5834 36.5774 11.2166 36.7774 12.05C37.0107 12.8834 37.1274 14 37.1274 15.4V33.65ZM28.3274 32.25C28.3274 32.6834 28.3774 32.9834 28.4774 33.15C28.5774 33.2834 28.8274 33.35 29.2274 33.35C29.6607 33.35 29.9274 33.2834 30.0274 33.15C30.1274 32.9834 30.1774 32.6834 30.1774 32.25V16.8C30.1774 16.3666 30.1274 16.0834 30.0274 15.95C29.9274 15.7834 29.6607 15.7 29.2274 15.7C28.8274 15.7 28.5774 15.7834 28.4774 15.95C28.3774 16.0834 28.3274 16.3666 28.3274 16.8V32.25ZM47.8726 0V10.9C48.306 10.3 48.8393 9.88336 49.4726 9.65C50.1393 9.41665 50.956 9.3 51.9226 9.3C52.8893 9.3 53.6726 9.41665 54.2726 9.65C54.8726 9.85 55.3226 10.1834 55.6226 10.65C55.956 11.1166 56.1726 11.75 56.2726 12.55C56.406 13.3166 56.4726 14.2666 56.4726 15.4V33.65C56.4726 34.8166 56.406 35.8 56.2726 36.6C56.1726 37.3666 55.956 37.9834 55.6226 38.45C55.2893 38.9166 54.806 39.25 54.1726 39.45C53.5393 39.65 52.7226 39.75 51.7226 39.75C50.5893 39.75 49.6726 39.6334 48.9726 39.4C48.2726 39.1334 47.7393 38.7166 47.3726 38.15V39.5H40.7226V0H47.8726ZM49.5226 16.8C49.5226 16.4 49.4726 16.1166 49.3726 15.95C49.306 15.7834 49.0893 15.7 48.7226 15.7C48.3893 15.7 48.1393 15.7666 47.9726 15.9C47.8393 16 47.7393 16.1666 47.6726 16.4V32.65C47.7393 32.8834 47.8393 33.0666 47.9726 33.2C48.1393 33.3 48.3893 33.35 48.7226 33.35C49.0893 33.35 49.306 33.2666 49.3726 33.1C49.4726 32.9334 49.5226 32.65 49.5226 32.25V16.8ZM67.2586 5.2H60.1586V0H67.2586V5.2ZM67.2586 39.5H60.1586V9.55H67.2586V39.5ZM87.5882 39.5H80.3882V16.8C80.3882 16.4 80.3382 16.1166 80.2382 15.95C80.1711 15.7834 79.9546 15.7 79.5882 15.7C79.2546 15.7 79.0046 15.7666 78.8382 15.9C78.7046 16 78.5882 16.1666 78.4882 16.4V39.5H71.3382V9.55H77.9882V10.9C78.3546 10.3334 78.8882 9.93336 79.5882 9.7C80.2882 9.43336 81.2046 9.3 82.3382 9.3C83.3382 9.3 84.1711 9.4 84.8382 9.6C85.5382 9.8 86.0882 10.1334 86.4882 10.6C86.8882 11.0666 87.1711 11.7 87.3382 12.5C87.5046 13.2666 87.5882 14.2334 87.5882 15.4V39.5ZM98.6566 39.5H91.4066V32.45H98.6566V39.5ZM130.716 0L126.616 39.5H116.416L115.066 10.85H114.866L113.216 39.5H102.866L99.8158 0H107.966L108.816 27.7H109.016L110.216 0H120.216L121.066 27.7H121.266L122.516 0H130.716Z" fill="white"/>
</svg>
